<svg xmlns="http://www.w3.org/2000/svg" viewBox="0 0 800 800">
  <circle cx="400" cy="400" r="400" fill="white"/>
  <g transform="translate(200, 200) scale(0.5)">
    <path fill="#e74c3c" d="M511.4 240.5c-16.5 0-30 13.5-30 30v30h-30c-16.5 0-30 13.5-30 30s13.5 30 30 30h30v30c0 16.5 13.5 30 30 30s30-13.5 30-30v-30h30c16.5 0 30-13.5 30-30s-13.5-30-30-30h-30v-30c0-16.5-13.5-30-30-30z"/>
    <path fill="#e74c3c" d="M226.8 400c0-157.2 127.4-284.6 284.6-284.6S796 242.8 796 400H916c0-223.5-181.1-404.6-404.6-404.6S106.8 176.5 106.8 400H226.8z"/>
    <path fill="#e74c3c" d="M106.8 450v60h810v-60z"/>
    <path fill="#e74c3c" d="M166.8 510v100h60V510zM796.8 510v100h60V510z"/>
  </g>
</svg>
